<svg width="21" height="21" viewBox="0 0 21 21" fill="none" xmlns="http://www.w3.org/2000/svg">
<path d="M8.95922 12.5695L6.80362 10.4139C6.61981 10.2301 6.38586 10.1382 6.10179 10.1382C5.81772 10.1382 5.58378 10.2301 5.39997 10.4139C5.21616 10.5977 5.12425 10.8317 5.12425 11.1157C5.12425 11.3998 5.21616 11.6337 5.39997 11.8175L8.25739 14.675C8.45791 14.8755 8.69185 14.9757 8.95922 14.9757C9.22658 14.9757 9.46052 14.8755 9.66104 14.675L15.3258 9.01025C15.5096 8.82644 15.6015 8.5925 15.6015 8.30843C15.6015 8.02436 15.5096 7.79042 15.3258 7.60661C15.1419 7.4228 14.908 7.33089 14.6239 7.33089C14.3399 7.33089 14.1059 7.4228 13.9221 7.60661L8.95922 12.5695ZM10.3629 20.7909C8.97592 20.7909 7.67254 20.5277 6.4527 20.0013C5.23287 19.4749 4.17178 18.7606 3.26944 17.8582C2.36709 16.9559 1.65274 15.8948 1.12637 14.675C0.600002 13.4551 0.336819 12.1517 0.336819 10.7648C0.336819 9.37788 0.600002 8.07449 1.12637 6.85466C1.65274 5.63482 2.36709 4.57373 3.26944 3.67139C4.17178 2.76904 5.23287 2.05469 6.4527 1.52832C7.67254 1.00195 8.97592 0.73877 10.3629 0.73877C11.7498 0.73877 13.0532 1.00195 14.273 1.52832C15.4929 2.05469 16.5539 2.76904 17.4563 3.67139C18.3586 4.57373 19.073 5.63482 19.5994 6.85466C20.1257 8.07449 20.3889 9.37788 20.3889 10.7648C20.3889 12.1517 20.1257 13.4551 19.5994 14.675C19.073 15.8948 18.3586 16.9559 17.4563 17.8582C16.5539 18.7606 15.4929 19.4749 14.273 20.0013C13.0532 20.5277 11.7498 20.7909 10.3629 20.7909Z" fill="#3FA700"/>
</svg>
