<svg width="20" height="20" viewBox="0 0 20 20" fill="none" xmlns="http://www.w3.org/2000/svg">
<path fill-rule="evenodd" clip-rule="evenodd" d="M15.3057 6.38603L14.2788 7.4129L16.2194 9.35331L17.2463 8.32644C17.2142 8.21667 17.1714 8.0941 17.1181 7.96596C16.9688 7.60684 16.7684 7.27934 16.5607 7.07166C16.353 6.86397 16.0255 6.66362 15.6663 6.51427C15.5381 6.46097 15.4155 6.41821 15.3057 6.38603ZM14.8051 10.7675L12.8646 8.82708L7.70072 13.9905C7.07461 14.6166 6.70444 15.635 6.50649 16.6249C6.46414 16.8367 6.43114 17.0395 6.40545 17.2269C6.59257 17.2012 6.79517 17.1682 7.0067 17.1259C7.99611 16.9279 9.01459 16.5575 9.64138 15.9308L14.8051 10.7675ZM5.31623 18.3162C4.31623 18.3162 4.31623 18.3157 4.31623 18.3157L4.31623 18.3137L4.31624 18.3098L4.31631 18.2986L4.31677 18.2617C4.31727 18.231 4.31824 18.1881 4.3201 18.1343C4.32381 18.0267 4.33108 17.8749 4.34538 17.689C4.37387 17.3186 4.43078 16.8055 4.54532 16.2327C4.76672 15.1255 5.23526 13.6275 6.28656 12.5763L14.5437 4.31968L14.953 4.31626C15.392 4.31259 15.9475 4.46518 16.4342 4.66756C16.9406 4.87811 17.5214 5.20395 17.9749 5.65739C18.4283 6.11084 18.7542 6.69166 18.9648 7.19799C19.1672 7.6847 19.3198 8.24019 19.3161 8.67917L19.3127 9.08852L11.0555 17.3451C10.0039 18.3966 8.50627 18.8654 7.39917 19.087C6.82651 19.2016 6.31358 19.2585 5.94324 19.2871C5.75739 19.3014 5.60565 19.3086 5.4981 19.3124C5.44429 19.3142 5.40141 19.3152 5.37071 19.3157L5.33391 19.3161L5.32262 19.3162L5.31881 19.3162L5.31736 19.3162C5.31736 19.3162 5.31623 19.3162 5.31623 18.3162ZM5.31623 18.3162V19.3162H4.31623V18.3157L5.31623 18.3162Z" fill="#006FFD"/>
<path fill-rule="evenodd" clip-rule="evenodd" d="M2.90066 2.90066L3.86754 0H5.76491L6.7318 2.90066L9.63246 3.86754V5.76491L6.7318 6.7318L5.76491 9.63246H3.86754L2.90066 6.7318L0 5.76491V3.86754L2.90066 2.90066ZM4.81623 3.47851L4.63991 4.00746L4.00746 4.63991L3.47851 4.81623L4.00746 4.99254L4.63991 5.625L4.81623 6.15395L4.99254 5.625L5.625 4.99254L6.15395 4.81623L5.625 4.63991L4.99254 4.00746L4.81623 3.47851Z" fill="#006FFD"/>
</svg>
