<svg width="12" height="12" viewBox="0 0 12 12" fill="none" xmlns="http://www.w3.org/2000/svg">
<path fill-rule="evenodd" clip-rule="evenodd" d="M8.8267 8.1196C10.1448 6.4515 10.0338 4.02344 8.49373 2.48332C6.834 0.823593 4.14305 0.823593 2.48332 2.48332C0.823593 4.14305 0.823593 6.834 2.48332 8.49373C4.02344 10.0338 6.4515 10.1448 8.1196 8.8267L9.90794 10.615C10.1032 10.8103 10.4198 10.8103 10.615 10.615C10.8103 10.4198 10.8103 10.1032 10.615 9.90794L8.8267 8.1196ZM7.78662 3.19043C9.05583 4.45963 9.05583 6.51742 7.78662 7.78662C6.51742 9.05583 4.45963 9.05583 3.19043 7.78662C1.92122 6.51742 1.92122 4.45963 3.19043 3.19043C4.45963 1.92122 6.51742 1.92122 7.78662 3.19043Z" fill="#225C4B"/>
</svg>
