<svg width="24" height="24" viewBox="0 0 24 24" fill="none" xmlns="http://www.w3.org/2000/svg">
<path fill-rule="evenodd" clip-rule="evenodd" d="M4 6H20V18H4V6ZM2 6C2 4.89543 2.89543 4 4 4H20C21.1046 4 22 4.89543 22 6V18C22 19.1046 21.1046 20 20 20H4C2.89543 20 2 19.1046 2 18V6ZM6.34319 9.23225C5.95266 8.84173 5.95266 8.20856 6.34319 7.81804C6.73371 7.42752 7.36688 7.42752 7.7574 7.81804L12 12.0607L16.2427 7.81804C16.6332 7.42752 17.2664 7.42752 17.6569 7.81804C18.0474 8.20856 18.0474 8.84173 17.6569 9.23225L12.7071 14.182C12.3166 14.5725 11.6835 14.5725 11.2929 14.182L6.34319 9.23225Z" fill="#225C4B"/>
</svg>
