<svg width="508" height="506" viewBox="0 0 508 506" fill="none" xmlns="http://www.w3.org/2000/svg">
<path d="M237.123 9.54017C244.981 -2.8173 263.019 -2.8173 270.877 9.54017L271.964 11.2492C278.594 21.6758 292.998 23.6557 302.196 15.4046L303.704 14.0521C314.604 4.27295 331.973 9.1394 336.205 23.1587L336.791 25.0976C340.362 36.9264 353.698 42.7192 364.781 37.2554L366.598 36.3599C379.732 29.8843 395.144 39.2563 395.437 53.8977L395.478 55.9226C395.725 68.2763 407.004 77.4524 419.15 75.1813L421.141 74.809C435.536 72.1173 447.847 85.2997 444.179 99.4773L443.672 101.438C440.577 113.4 448.962 125.279 461.27 126.369L463.288 126.548C477.875 127.84 486.173 143.855 478.817 156.517L477.799 158.268C471.592 168.952 476.461 182.653 488.019 187.023L489.913 187.739C503.611 192.919 507.281 210.579 496.78 220.787L495.328 222.199C486.469 230.812 487.461 245.318 497.411 252.644L499.042 253.845C510.834 262.528 509.603 280.524 496.738 287.52L494.959 288.488C484.104 294.391 481.146 308.627 488.75 318.366L489.997 319.962C499.009 331.505 492.969 348.501 478.693 351.767L476.719 352.219C464.674 354.974 457.985 367.884 462.679 379.314L463.449 381.187C469.013 394.733 458.611 409.47 443.984 408.763L441.961 408.665C429.619 408.069 419.695 418.696 421.132 430.968L421.367 432.98C423.07 447.524 409.078 458.908 395.184 454.281L393.263 453.641C381.539 449.737 369.116 457.292 367.189 469.497L366.873 471.498C364.588 485.963 348.044 493.149 335.913 484.945L334.236 483.81C324 476.889 310 480.811 304.851 492.044L304.007 493.885C297.905 507.197 280.035 509.653 270.568 498.481L269.258 496.936C261.27 487.509 246.73 487.509 238.742 496.936L237.432 498.481C227.965 509.653 210.095 507.197 203.993 493.885L203.149 492.044C198 480.811 184 476.889 173.764 483.81L172.087 484.945C159.956 493.149 143.412 485.963 141.127 471.498L140.811 469.497C138.884 457.292 126.461 449.737 114.737 453.641L112.816 454.281C98.9216 458.908 84.9298 447.524 86.6328 432.98L86.8684 430.968C88.3053 418.696 78.3809 408.069 66.0392 408.665L64.0162 408.763C49.3889 409.47 38.9871 394.733 44.5512 381.187L45.3207 379.314C50.0154 367.884 43.326 354.974 31.2811 352.219L29.3068 351.767C15.0313 348.501 8.99091 331.505 18.0034 319.962L19.2498 318.366C26.8541 308.627 23.8958 294.391 13.041 288.488L11.2618 287.52C-1.60313 280.524 -2.83405 262.528 8.95836 253.845L10.5893 252.644C20.5391 245.318 21.5313 230.812 12.6718 222.199L11.2196 220.787C0.719359 210.579 4.38919 192.919 18.087 187.739L19.9814 187.023C31.5389 182.653 36.408 168.952 30.2008 158.268L29.1833 156.517C21.8265 143.855 30.1249 127.84 44.7121 126.548L46.7296 126.369C59.0376 125.279 67.4226 113.4 64.3279 101.438L63.8207 99.4773C60.1529 85.2998 72.4644 72.1173 86.8593 74.809L88.8501 75.1813C100.996 77.4524 112.275 68.2763 112.522 55.9226L112.563 53.8977C112.856 39.2563 128.268 29.8843 141.402 36.3599L143.219 37.2554C154.302 42.7192 167.638 36.9264 171.209 25.0976L171.795 23.1587C176.027 9.1394 193.396 4.27295 204.296 14.0521L205.804 15.4046C215.002 23.6557 229.406 21.6758 236.036 11.2492L237.123 9.54017Z" fill="#C2FFEC"/>
</svg>
