<svg width="375" height="501" viewBox="0 0 375 501" fill="none" xmlns="http://www.w3.org/2000/svg">
<path d="M169.123 9.54017C176.981 -2.8173 195.019 -2.8173 202.877 9.54017L203.964 11.2492C210.594 21.6758 224.998 23.6557 234.196 15.4046L235.704 14.0521C246.604 4.27295 263.973 9.1394 268.205 23.1587L268.791 25.0976C272.362 36.9264 285.698 42.7192 296.781 37.2554L298.598 36.3599C311.732 29.8843 327.144 39.2563 327.437 53.8977L327.478 55.9226C327.725 68.2763 339.004 77.4524 351.15 75.1813L353.141 74.809C367.536 72.1173 379.847 85.2997 376.179 99.4773L375.672 101.438C372.577 113.4 380.962 125.279 393.27 126.369L395.288 126.548C409.875 127.84 418.173 143.855 410.817 156.517L409.799 158.268C403.592 168.952 408.461 182.653 420.019 187.023L421.913 187.739C435.611 192.919 439.281 210.579 428.78 220.787L427.328 222.199C418.469 230.812 419.461 245.318 429.411 252.644L431.042 253.845C442.834 262.528 441.603 280.524 428.738 287.52L426.959 288.488C416.104 294.391 413.146 308.627 420.75 318.366L421.997 319.962C431.009 331.505 424.969 348.501 410.693 351.767L408.719 352.219C396.674 354.974 389.985 367.884 394.679 379.314L395.449 381.187C401.013 394.733 390.611 409.47 375.984 408.763L373.961 408.665C361.619 408.069 351.695 418.696 353.132 430.968L353.367 432.98C355.07 447.524 341.078 458.908 327.184 454.281L325.263 453.641C313.539 449.737 301.116 457.292 299.189 469.497L298.873 471.498C296.588 485.963 280.044 493.149 267.913 484.945L266.236 483.81C256 476.889 242 480.811 236.851 492.044L236.007 493.885C229.905 507.197 212.035 509.653 202.568 498.481L201.258 496.936C193.27 487.509 178.73 487.509 170.742 496.936L169.432 498.481C159.965 509.653 142.095 507.197 135.993 493.885L135.149 492.044C130 480.811 116 476.889 105.764 483.81L104.087 484.945C91.9558 493.149 75.4116 485.963 73.1273 471.498L72.8114 469.497C70.884 457.292 58.4607 449.737 46.7375 453.641L44.8159 454.281C30.9216 458.908 16.9298 447.524 18.6328 432.98L18.8684 430.968C20.3053 418.696 10.3809 408.069 -1.96082 408.665L-3.9838 408.763C-18.6111 409.47 -29.0129 394.733 -23.4488 381.187L-22.6793 379.314C-17.9846 367.884 -24.674 354.974 -36.7189 352.219L-38.6932 351.767C-52.9687 348.501 -59.0091 331.505 -49.9966 319.962L-48.7502 318.366C-41.1459 308.627 -44.1042 294.391 -54.959 288.488L-56.7382 287.52C-69.6031 280.524 -70.8341 262.528 -59.0416 253.845L-57.4107 252.644C-47.4609 245.318 -46.4687 230.812 -55.3282 222.199L-56.7804 220.787C-67.2806 210.579 -63.6108 192.919 -49.913 187.739L-48.0186 187.023C-36.4611 182.653 -31.592 168.952 -37.7992 158.268L-38.8167 156.517C-46.1735 143.855 -37.8751 127.84 -23.2879 126.548L-21.2704 126.369C-8.96243 125.279 -0.577446 113.4 -3.6721 101.438L-4.17935 99.4773C-7.84708 85.2998 4.46444 72.1173 18.8593 74.809L20.8501 75.1813C32.9957 77.4524 44.2746 68.2763 44.5222 55.9226L44.5627 53.8977C44.8561 39.2563 60.2676 29.8843 73.4025 36.3599L75.219 37.2554C86.3015 42.7192 99.6379 36.9264 103.209 25.0976L103.795 23.1587C108.027 9.1394 125.396 4.27295 136.296 14.0521L137.804 15.4046C147.002 23.6557 161.406 21.6758 168.036 11.2492L169.123 9.54017Z" fill="#FFFAF4"/>
</svg>
