<svg width="20" height="20" viewBox="0 0 20 20" fill="none" xmlns="http://www.w3.org/2000/svg">
<path fill-rule="evenodd" clip-rule="evenodd" d="M15.9597 6.70309L14.9252 7.73761L16.8802 9.69246L17.9148 8.65795C17.8823 8.54736 17.8393 8.42388 17.7856 8.29478C17.6351 7.93298 17.4333 7.60305 17.224 7.39383C17.0148 7.18459 16.6848 6.98274 16.323 6.83229C16.1939 6.77859 16.0703 6.73551 15.9597 6.70309ZM15.4554 11.1171L13.5004 9.16231L8.29809 14.3642C7.66732 14.9949 7.29439 16.0209 7.09497 17.0181C7.0523 17.2315 7.01906 17.4359 6.99317 17.6247C7.18169 17.5988 7.38579 17.5655 7.5989 17.5229C8.59568 17.3234 9.62175 16.9503 10.2532 16.3189L15.4554 11.1171ZM5.89585 18.7221C4.8884 18.7221 4.8884 18.7216 4.8884 18.7216L4.8884 18.7195L4.88841 18.7157L4.88848 18.7043L4.88895 18.6672C4.88946 18.6363 4.89043 18.5931 4.8923 18.5388C4.89604 18.4304 4.90337 18.2775 4.91777 18.0902C4.94648 17.717 5.0038 17.2001 5.1192 16.6231C5.34225 15.5076 5.81427 13.9984 6.8734 12.9394L15.192 4.62137L15.6043 4.61792C16.0466 4.61422 16.6063 4.76794 17.0966 4.97184C17.6067 5.18395 18.1919 5.51222 18.6487 5.96903C19.1056 6.42585 19.4339 7.011 19.646 7.52109C19.8499 8.01143 20.0037 8.57105 20 9.0133L19.9965 9.4257L11.6779 17.7437C10.6184 18.8031 9.10964 19.2754 7.9943 19.4986C7.41737 19.6141 6.90062 19.6714 6.52753 19.7001C6.34029 19.7146 6.18742 19.7219 6.07908 19.7256C6.02486 19.7275 5.98166 19.7285 5.95073 19.729L5.91366 19.7294L5.90229 19.7295L5.89844 19.7295L5.89699 19.7295C5.89699 19.7295 5.89585 19.7295 5.89585 18.7221ZM5.89585 18.7221V19.7295H4.8884V18.7216L5.89585 18.7221Z" fill="#225C4B"/>
<path fill-rule="evenodd" clip-rule="evenodd" d="M3.46229 3.19178L4.43638 0.269531H6.34787L7.32195 3.19178L10.2442 4.16586V6.07735L7.32195 7.05143L6.34787 9.97368H4.43638L3.46229 7.05143L0.540039 6.07735V4.16586L3.46229 3.19178ZM5.39212 3.77393L5.21449 4.30681L4.57733 4.94398L4.04444 5.12161L4.57733 5.29924L5.21449 5.9364L5.39212 6.46929L5.56975 5.9364L6.20692 5.29924L6.73981 5.12161L6.20692 4.94398L5.56975 4.30681L5.39212 3.77393Z" fill="#225C4B"/>
</svg>
