<svg width="20" height="18" viewBox="0 0 20 18" fill="none" xmlns="http://www.w3.org/2000/svg">
<path d="M1.4977 17.25C1.32965 17.25 1.17687 17.208 1.03937 17.124C0.90187 17.0399 0.794926 16.9292 0.718537 16.7917C0.642148 16.6542 0.600134 16.5052 0.592495 16.3448C0.584856 16.1844 0.62687 16.0278 0.718537 15.875L9.1977 1.20833C9.28937 1.05556 9.40777 0.940972 9.55291 0.864583C9.69805 0.788194 9.84701 0.75 9.99979 0.75C10.1526 0.75 10.3015 0.788194 10.4467 0.864583C10.5918 0.940972 10.7102 1.05556 10.8019 1.20833L19.281 15.875C19.3727 16.0278 19.4147 16.1844 19.4071 16.3448C19.3994 16.5052 19.3574 16.6542 19.281 16.7917C19.2046 16.9292 19.0977 17.0399 18.9602 17.124C18.8227 17.208 18.6699 17.25 18.5019 17.25H1.4977ZM9.99979 14.5C10.2595 14.5 10.4772 14.4122 10.6529 14.2365C10.8286 14.0608 10.9165 13.8431 10.9165 13.5833C10.9165 13.3236 10.8286 13.1059 10.6529 12.9302C10.4772 12.7545 10.2595 12.6667 9.99979 12.6667C9.74006 12.6667 9.52236 12.7545 9.34666 12.9302C9.17097 13.1059 9.08312 13.3236 9.08312 13.5833C9.08312 13.8431 9.17097 14.0608 9.34666 14.2365C9.52236 14.4122 9.74006 14.5 9.99979 14.5ZM9.99979 11.75C10.2595 11.75 10.4772 11.6622 10.6529 11.4865C10.8286 11.3108 10.9165 11.0931 10.9165 10.8333V8.08333C10.9165 7.82361 10.8286 7.6059 10.6529 7.43021C10.4772 7.25451 10.2595 7.16667 9.99979 7.16667C9.74006 7.16667 9.52236 7.25451 9.34666 7.43021C9.17097 7.6059 9.08312 7.82361 9.08312 8.08333V10.8333C9.08312 11.0931 9.17097 11.3108 9.34666 11.4865C9.52236 11.6622 9.74006 11.75 9.99979 11.75Z" fill="#F9B400"/>
</svg>
